<svg xmlns="http://www.w3.org/2000/svg" viewBox="0 0 21 20"><defs><style>.cls-1{fill:#fff;}</style></defs><g id="Layer_2" data-name="Layer 2"><g id="Layer_1-2" data-name="Layer 1"><path class="cls-1" d="M19.06,3.85H15.42a5,5,0,0,0-1.78-2.77,5.09,5.09,0,0,0-6.27,0A5,5,0,0,0,5.58,3.85H1.94A1.93,1.93,0,0,0,0,5.77V18.08A1.93,1.93,0,0,0,1.94,20H19.06A1.93,1.93,0,0,0,21,18.08V5.77a1.93,1.93,0,0,0-1.94-1.92ZM10.5,2.31A2.64,2.64,0,0,1,12,2.73a2.66,2.66,0,0,1,1,1.12H8A2.75,2.75,0,0,1,10.5,2.31Zm8.17,15.38H2.33V6.15H5.44V8.08A1.18,1.18,0,0,0,6.61,9.23,1.16,1.16,0,0,0,7.78,8.08V6.15h5.44V8.08a1.16,1.16,0,0,0,1.17,1.15,1.18,1.18,0,0,0,1.17-1.15V6.15h3.11Z"/></g></g></svg>