<svg xmlns="http://www.w3.org/2000/svg" viewBox="0 0 221.6 35.75"><defs><style>.cls-1{fill:#085ea8;}.cls-2{fill:#e95518;}</style></defs><g id="Layer_2" data-name="Layer 2"><g id="Layer_1-2" data-name="Layer 1"><path class="cls-1" d="M7.55,0h19a5.17,5.17,0,0,1,3.32,1.05,6.39,6.39,0,0,1,2,2.7A9.27,9.27,0,0,1,32.5,7.3a10.54,10.54,0,0,1-.8,4,11.16,11.16,0,0,1-2.32,3.56,10.81,10.81,0,0,1-3.73,2.47,6.25,6.25,0,0,1,3.42,2.53A7.78,7.78,0,0,1,30.3,24.3a10.34,10.34,0,0,1-1.13,4.95,10,10,0,0,1-3.07,3.48,14.56,14.56,0,0,1-4.45,2.07,19.08,19.08,0,0,1-5.2.7H0ZM18,28.55a3.81,3.81,0,0,0,1.57-.35,4.23,4.23,0,0,0,1.36-1,5.28,5.28,0,0,0,.94-1.53,4.88,4.88,0,0,0,.38-1.9,3.76,3.76,0,0,0-.3-1.53,2.93,2.93,0,0,0-.8-1.07,1.83,1.83,0,0,0-1.2-.4H11.3L9.7,28.55Zm2-14.2a3.53,3.53,0,0,0,1.4-.3,4.21,4.21,0,0,0,1.3-.88,4,4,0,0,0,1-1.42A5.46,5.46,0,0,0,24,9.7a3,3,0,0,0-.6-2A1.94,1.94,0,0,0,21.8,7H14.25L12.7,14.35Z"/><path class="cls-1" d="M40.6,0h8.2l-6,28.3h16l-1.5,7.2H33.05Z"/><path class="cls-1" d="M74.5,35.75a13.17,13.17,0,0,1-6.93-1.6,9.25,9.25,0,0,1-3.8-4.34,15.52,15.52,0,0,1-1.17-6.14A24.93,24.93,0,0,1,62.75,21c.1-.92.25-1.86.45-2.83L67.1,0h8.2L71.4,18.12c-.13.73-.24,1.43-.33,2.09A16.45,16.45,0,0,0,71,22.16a9.6,9.6,0,0,0,.5,3.2,4.68,4.68,0,0,0,1.62,2.24,4.81,4.81,0,0,0,3,.85,6.64,6.64,0,0,0,3.4-.87,8.79,8.79,0,0,0,2.6-2.35,15,15,0,0,0,1.85-3.32,24.91,24.91,0,0,0,1.2-3.79L89,0h8.2L93.3,18.12A29.34,29.34,0,0,1,90.92,25,21.58,21.58,0,0,1,87,30.63a16.78,16.78,0,0,1-5.48,3.77A17.51,17.51,0,0,1,74.5,35.75Z"/><path class="cls-1" d="M103.45,0H126.8l-1.55,7.2H110.1l-1.45,6.9h13l-1.4,6.65h-13L105.6,28.3h15.6l-1.5,7.2H95.9Z"/><path class="cls-2" d="M132.25,0h8.2L137.2,15.3,152.2,0h9.25L145.5,15.85l9.2,19.65h-9.4l-6.15-14.3-4.05,3.85L132.9,35.5h-8.2Z"/><path class="cls-2" d="M164.9,0h23.35L186.7,7.2H171.55l-1.45,6.9h13l-1.4,6.65h-13l-1.65,7.55h15.6l-1.5,7.2h-23.8Z"/><path class="cls-2" d="M196.6,23.3,189.8,0h8.9l3.45,16.3L212.7,0h8.9L204.7,23.4l-2.55,12.1H194Z"/></g></g></svg>