<svg xmlns="http://www.w3.org/2000/svg" viewBox="0 0 20.95 20"><defs><style>.cls-1{fill:#fff;}</style></defs><g id="Layer_2" data-name="Layer 2"><g id="Layer_1-2" data-name="Layer 1"><path class="cls-1" d="M20,0H10L2,8V9H3.49C6.49,9,9,11.91,9,15.5V18H21V1a1,1,0,0,0-.29-.71A1,1,0,0,0,20,0ZM18,13H15V11h3Zm1-5H4.82l6-6H19ZM6,14v-.5a2.55,2.55,0,0,0-.73-1.77A2.5,2.5,0,0,0,1,13.5V14a1,1,0,0,0-.71.29A1,1,0,0,0,0,15v4a1,1,0,0,0,.29.71A1,1,0,0,0,1,20H6a1,1,0,0,0,.7-.29A1,1,0,0,0,7,19V15a1,1,0,0,0-.29-.71A1,1,0,0,0,6,14Zm-.8,0H1.8v-.5a1.7,1.7,0,0,1,3.39,0Z"/></g></g></svg>