<svg xmlns="http://www.w3.org/2000/svg" viewBox="0 0 14.74 20"><defs><style>.cls-1{fill:#fff;}</style></defs><g id="Layer_2" data-name="Layer 2"><g id="Layer_1-2" data-name="Layer 1"><path class="cls-1" d="M8.6,20a6.41,6.41,0,0,1-1.23-.12A6.41,6.41,0,0,1,6.14,20a5.92,5.92,0,0,1-3.08-.84A6.31,6.31,0,0,1,0,13.75a11,11,0,0,1,.66-3.38A27.92,27.92,0,0,1,2.13,6.78C2.67,5.7,3.29,4.56,4,3.38s1.2-2,1.48-2.4S6,.23,6.14,0c.35.49.76,1.12,1.23,1.88L8.6,0l.66,1q.4.61,1.47,2.4c.7,1.18,1.32,2.32,1.87,3.4a27.92,27.92,0,0,1,1.47,3.59,10.73,10.73,0,0,1,.67,3.38,6.31,6.31,0,0,1-3.06,5.41A5.92,5.92,0,0,1,8.6,20ZM6.14,1.88c-.13.2-.3.49-.53.84S5,3.77,4.43,4.78s-1.06,2-1.49,2.87a22.69,22.69,0,0,0-1.18,3,8.66,8.66,0,0,0-.53,2.66,5.59,5.59,0,0,0,1.44,3.87,4.48,4.48,0,0,0,3.47,1.6,4.48,4.48,0,0,0,3.47-1.6,5.59,5.59,0,0,0,1.44-3.87,8.89,8.89,0,0,0-.51-2.63,22.17,22.17,0,0,0-1.22-3c-.48-1-1-1.92-1.45-2.8S7,3.23,6.65,2.69,6.15,1.88,6.14,1.88ZM8,2.87q4.31,7.13,4.3,10.88a6.12,6.12,0,0,1-.56,2.61,6.17,6.17,0,0,1-1.55,2.1,4.92,4.92,0,0,0,2.41-2,5.71,5.71,0,0,0,.93-3.2A8.89,8.89,0,0,0,13,10.65a23.57,23.57,0,0,0-1.23-3c-.48-1-1-1.92-1.44-2.8S9.44,3.22,9.1,2.68l-.5-.8C8.43,2.14,8.23,2.47,8,2.87Z"/></g></g></svg>