<svg xmlns="http://www.w3.org/2000/svg" viewBox="0 0 60 42"><defs><style>.cls-1{fill:#085ea8;}</style></defs><g id="Layer_2" data-name="Layer 2"><g id="Layer_1-2" data-name="Layer 1"><path class="cls-1" d="M14.06,22.65A8.73,8.73,0,0,0,5.6,30a9.51,9.51,0,0,1,8.46-5.36A9.52,9.52,0,0,1,22.53,30a8.74,8.74,0,0,0-8.47-7.37"/><path class="cls-1" d="M45.94,22.65A8.72,8.72,0,0,0,37.5,30a9.32,9.32,0,0,1,16.88,0A8.72,8.72,0,0,0,45.94,22.65Z"/><path class="cls-1" d="M40.82,19.39H50a.93.93,0,0,0,.86-1.2l-1.57-8.6A1.44,1.44,0,0,0,48,8.39H40.82a1.16,1.16,0,0,0-1.08,1.23v8.55a1.16,1.16,0,0,0,1.08,1.22"/><path class="cls-1" d="M37.5,9.61a1.17,1.17,0,0,0-1.11-1.22H30.3a2,2,0,0,0-1.62,1.08L24.2,18.32c-.3.59,0,1.07.57,1.07H36.39a1.17,1.17,0,0,0,1.11-1.22V9.61Z"/><path class="cls-1" d="M59.06,29.1H58c-.15-1.63-.51-4-.95-6.59l1.46-.3a1,1,0,0,0,.54-.42.9.9,0,0,0,.1-.68l-2-10.18a.86.86,0,0,0-.15-.32.82.82,0,0,0-.25-.24.93.93,0,0,0-.33-.12,1,1,0,0,0-.35,0l-1.34.15c-.32-1.64-.54-2.69-.54-2.69S55.56,7.25,55.56,5h-5.9a4.78,4.78,0,0,0-.93-3h1.92a1,1,0,1,0,0-2H32.51a1,1,0,1,0,0,2h2.08a4.78,4.78,0,0,0-.93,3h-2.3c-2.08,0-4.61.09-7,4.49A69.76,69.76,0,0,1,19,17.73c-12.4,0-14.34,4.16-16.23,7.45A12,12,0,0,0,1.78,30H.94a.9.9,0,0,0-.66.27.88.88,0,0,0-.28.65v4.61a.93.93,0,0,0,.94.92H2.81a.94.94,0,0,0,.94-.92v-.92H5.68a8.45,8.45,0,0,0,16.77,0h.61v.92a.93.93,0,0,0,.94.92H36a.91.91,0,0,0,.66-.27.88.88,0,0,0,.28-.65v-.92h.62a8.45,8.45,0,0,0,16.76,0h1.24a2.2,2.2,0,0,0,.69-.17v1.09a.93.93,0,0,0,.94.92h1.87a.9.9,0,0,0,.66-.27.88.88,0,0,0,.28-.65V30a.88.88,0,0,0-.28-.65.9.9,0,0,0-.66-.27ZM36.61,2H46.7a5.09,5.09,0,0,1,.9,3H35.71A5.09,5.09,0,0,1,36.61,2ZM14.06,38.44a4.74,4.74,0,1,1,4.82-4.73,4.78,4.78,0,0,1-4.82,4.73Zm31.88,0a4.74,4.74,0,1,1,4.82-4.73A4.78,4.78,0,0,1,45.94,38.44Zm9.51-5.81H54.3a8.45,8.45,0,0,0-16.72,0H22.42a8.45,8.45,0,0,0-16.72,0H3.77a30.55,30.55,0,0,1,.15-4.21c2-1.13,2.74-2.78,2-2.92a4.62,4.62,0,0,0-1-.08C6.56,22.55,8.65,19.73,19,19.73h.84l.59-.6a68,68,0,0,0,5.73-8.68C28,7,29.62,7,31.36,7H52.08l.23,1.13c1.06,5.11,3.81,19.09,3.81,22.36,0,1.43-.39,2.05-.67,2.14"/><path class="cls-1" d="M13,33.11l-1.1-1.89a1.21,1.21,0,0,0-1,.69,1.23,1.23,0,0,0-.11,1.2Z"/><path class="cls-1" d="M13,34.3h-2.2a1.23,1.23,0,0,0,.11,1.2,1.21,1.21,0,0,0,1,.69L13,34.3"/><path class="cls-1" d="M13,36.79a1.24,1.24,0,0,0,1.1.5,1.24,1.24,0,0,0,1.1-.5l-1.1-1.89L13,36.79"/><path class="cls-1" d="M15.11,34.3l1.1,1.89A1.43,1.43,0,0,0,17.3,34.3Z"/><path class="cls-1" d="M16.21,31.22l-1.1,1.89H17.3a1.43,1.43,0,0,0-1.09-1.89"/><path class="cls-1" d="M15.16,30.62a1.24,1.24,0,0,0-1.1-.5,1.24,1.24,0,0,0-1.1.5l1.1,1.89Z"/><path class="cls-1" d="M44.89,33.11l-1.1-1.89a1.43,1.43,0,0,0-1.09,1.89Z"/><path class="cls-1" d="M44.89,34.3H42.7a1.43,1.43,0,0,0,1.09,1.89l1.1-1.89"/><path class="cls-1" d="M44.84,36.79a1.46,1.46,0,0,0,2.2,0l-1.1-1.89Z"/><path class="cls-1" d="M47,34.3l1.1,1.89a1.43,1.43,0,0,0,1.1-1.89Z"/><path class="cls-1" d="M48.08,31.22,47,33.11h2.2a1.23,1.23,0,0,0-.11-1.2,1.21,1.21,0,0,0-1-.69"/><path class="cls-1" d="M47,30.62a1.22,1.22,0,0,0-1.09-.5,1.24,1.24,0,0,0-1.1.5l1.1,1.89Z"/></g></g></svg>