<svg xmlns="http://www.w3.org/2000/svg" viewBox="0 0 29.52 20"><defs><style>.cls-1{fill:#fff;}</style></defs><g id="Layer_2" data-name="Layer 2"><g id="Layer_1-2" data-name="Layer 1"><path class="cls-1" d="M17,2.91,15.63,4.05a8.3,8.3,0,0,0-3.3-1.95L12.84.43A9.94,9.94,0,0,1,17,2.91Zm.78.86L16.41,4.91A7.79,7.79,0,0,1,18,8.17l1.78.12A10,10,0,0,0,17.74,3.77ZM11.19,1.85,11.71.16A9.88,9.88,0,0,0,6.09.78l.73,1.59A8.24,8.24,0,0,1,11.19,1.85Zm1.49,17.76L11.91,18A8.23,8.23,0,0,1,1.74,10.43L0,10.47A10,10,0,0,0,12.68,19.61ZM1.77,9.27a8.24,8.24,0,0,1,4-6.38l-.73-1.6a10.05,10.05,0,0,0-5,8Zm10.49,2.17L29.52,10.1V9.63L12,8.4a2.92,2.92,0,0,1,.24,3Zm-.53-1.58a1.63,1.63,0,1,0-2.44,1.42A1.63,1.63,0,0,0,11.73,9.86Z"/></g></g></svg>