<svg xmlns="http://www.w3.org/2000/svg" viewBox="0 0 21.21 20"><defs><style>.cls-1{fill:#fff;}</style></defs><g id="Layer_2" data-name="Layer 2"><g id="Layer_1-2" data-name="Layer 1"><path class="cls-1" d="M13.06,6.28a1.24,1.24,0,0,1,1.24,1.1v.13a3.19,3.19,0,0,0-1.25.27V7.53H6.86V13a3.11,3.11,0,0,0,1.86,2.85v1.33a4.4,4.4,0,0,1-3.11-3.94V7.53a1.24,1.24,0,0,1,1.1-1.24h6.35Zm3.78,1.23a1.94,1.94,0,0,1,.34,0H18.7v.6a3.05,3.05,0,0,1,1.21,1.93h0V7.38a1.24,1.24,0,0,0-1.24-1.1H15.23a2.39,2.39,0,0,1,.32,1.06v.17ZM4.69,6.28a2.44,2.44,0,0,0-.32,1v.23H1.25V12.2a2.31,2.31,0,0,0,1.06,2,2.32,2.32,0,0,0,2.21.16A5.37,5.37,0,0,0,5,15.49a3.54,3.54,0,0,1-1.67.26,3.48,3.48,0,0,1-1.6-.52A3.61,3.61,0,0,1,0,12.41V7.53A1.2,1.2,0,0,1,.32,6.7a1.2,1.2,0,0,1,.78-.41H4.69ZM10,0A2.78,2.78,0,1,1,7.17,2.78,2.78,2.78,0,0,1,10,0Zm0,1.25a1.54,1.54,0,0,0-1.09.45,1.57,1.57,0,0,0-.45,1.08A1.53,1.53,0,0,0,11,3.87,1.54,1.54,0,0,0,10,1.25ZM16.19.78a2.44,2.44,0,0,1,1.69.7,2.39,2.39,0,0,1,.7,1.69,2.36,2.36,0,0,1-.7,1.69,2.39,2.39,0,0,1-3.38,0,2.36,2.36,0,0,1-.7-1.69,2.39,2.39,0,0,1,.7-1.69A2.42,2.42,0,0,1,16.19.78Zm0,1.25a1.14,1.14,0,0,0-1.14,1.14,1.14,1.14,0,0,0,.33.81,1.13,1.13,0,0,0,.81.34A1.1,1.1,0,0,0,17,4a1.12,1.12,0,0,0,0-1.61A1.1,1.1,0,0,0,16.19,2ZM3.75.78A2.39,2.39,0,0,1,6.14,3.17,2.39,2.39,0,0,1,3.75,5.56,2.39,2.39,0,0,1,1.36,3.17,2.39,2.39,0,0,1,3.75.78ZM3.75,2a1.11,1.11,0,0,0-.81.34A1.15,1.15,0,0,0,2.94,4,1.12,1.12,0,0,0,4.55,4a1.12,1.12,0,0,0,0-1.61A1.1,1.1,0,0,0,3.75,2Zm8.72,9.23v-.63a1.88,1.88,0,0,1,1.87-1.87h2.5a1.88,1.88,0,0,1,1.33.55,1.86,1.86,0,0,1,.55,1.32v.63h.62a1.84,1.84,0,0,1,1.87,1.87V15H18.72v-.62a.65.65,0,0,0-.63-.63.63.63,0,0,0-.44.19.59.59,0,0,0-.18.44V15H13.72v-.62a.63.63,0,0,0-.18-.44.62.62,0,0,0-.89,0,.63.63,0,0,0-.18.44V15H10V13.13a1.9,1.9,0,0,1,.55-1.33,1.88,1.88,0,0,1,1.33-.54Zm1.25-.63v.63h3.75v-.63a.63.63,0,0,0-.19-.44.59.59,0,0,0-.44-.18h-2.5a.62.62,0,0,0-.44.18A.67.67,0,0,0,13.72,10.63Zm5,5.62h2.49v1.88a1.87,1.87,0,0,1-.54,1.32,1.9,1.9,0,0,1-1.33.55H11.85A1.88,1.88,0,0,1,10,18.13V16.25h2.5v.63a.67.67,0,0,0,.18.44.62.62,0,0,0,.44.18.63.63,0,0,0,.45-.18.67.67,0,0,0,.18-.44v-.63h3.75v.63a.61.61,0,0,0,.62.62.59.59,0,0,0,.44-.18.63.63,0,0,0,.19-.44Z"/></g></g></svg>