<svg xmlns="http://www.w3.org/2000/svg" viewBox="0 0 330.09 103.85"><defs><style>.cls-1{fill:#085ea8;}.cls-2{fill:#e95518;}</style></defs><g id="Layer_2" data-name="Layer 2"><g id="Layer_1-2" data-name="Layer 1"><path class="cls-1" d="M1,36.5V1H25.3V9.5H10.7v5.9H22.6v7.9H10.7V36.5Z"/><path class="cls-1" d="M45.75,18.3a19.42,19.42,0,0,0-5,.6,6.1,6.1,0,0,0-3.35,2V36.5H27.9V10.55h8.7V15.2a11,11,0,0,1,3.5-4.08A7.78,7.78,0,0,1,44.55,9.7h.78a1.86,1.86,0,0,1,.42.05Z"/><path class="cls-1" d="M61.65,37a16.66,16.66,0,0,1-6.15-1.06A13.08,13.08,0,0,1,51,33.06a12.35,12.35,0,0,1-2.77-4.19,13.24,13.24,0,0,1-1-5,14.41,14.41,0,0,1,1.65-6.85,12.61,12.61,0,0,1,4.85-5,15.3,15.3,0,0,1,7.9-1.89A15.4,15.4,0,0,1,69.55,12,12.61,12.61,0,0,1,74.4,17a13.73,13.73,0,0,1,1.65,6.64c0,.5,0,1-.08,1.51s-.1,1-.17,1.35H57.35a3.79,3.79,0,0,0,.77,2.16,3.91,3.91,0,0,0,1.7,1.21A6.21,6.21,0,0,0,62,30.2a6.29,6.29,0,0,0,2.92-.7,3.54,3.54,0,0,0,1.83-1.95l8,2.3a11.79,11.79,0,0,1-2.93,3.7,14.19,14.19,0,0,1-4.42,2.53A17,17,0,0,1,61.65,37Zm-4.5-16.25h8.7a4.6,4.6,0,0,0-.73-2.07,3.88,3.88,0,0,0-1.5-1.31,4.63,4.63,0,0,0-2.12-.47,4.7,4.7,0,0,0-2.13.47,4,4,0,0,0-1.5,1.31A4.72,4.72,0,0,0,57.15,20.75Z"/><path class="cls-1" d="M92.1,37A16.66,16.66,0,0,1,86,35.94a13.08,13.08,0,0,1-4.53-2.88,12.35,12.35,0,0,1-2.77-4.19,13.24,13.24,0,0,1-1-5,14.41,14.41,0,0,1,1.65-6.85,12.61,12.61,0,0,1,4.85-5,15.3,15.3,0,0,1,7.9-1.89A15.4,15.4,0,0,1,100,12,12.61,12.61,0,0,1,104.85,17a13.73,13.73,0,0,1,1.65,6.64c0,.5,0,1-.08,1.51s-.1,1-.17,1.35H87.8a3.79,3.79,0,0,0,.77,2.16,3.91,3.91,0,0,0,1.7,1.21,6.21,6.21,0,0,0,2.13.38,6.29,6.29,0,0,0,2.92-.7,3.54,3.54,0,0,0,1.83-1.95l8,2.3a11.79,11.79,0,0,1-2.93,3.7,14.19,14.19,0,0,1-4.42,2.53A17,17,0,0,1,92.1,37ZM87.6,20.75h8.7a4.6,4.6,0,0,0-.73-2.07,3.88,3.88,0,0,0-1.5-1.31A4.63,4.63,0,0,0,92,16.9a4.7,4.7,0,0,0-2.13.47,4,4,0,0,0-1.5,1.31A4.72,4.72,0,0,0,87.6,20.75Z"/><path class="cls-1" d="M131.25,19.05V36.5H121.5V1h7.6l14.25,18.05V1h9.75V36.5h-7.75Z"/><path class="cls-1" d="M158.3,27.62V10.55h9.5V25.42a4.07,4.07,0,0,0,.77,2.62,2.6,2.6,0,0,0,2.13,1,5.93,5.93,0,0,0,1.5-.19,4.42,4.42,0,0,0,1.52-.76,7,7,0,0,0,1.53-1.61V10.55h9.5v15.5a3.11,3.11,0,0,0,.4,1.84,1.94,1.94,0,0,0,1.4.61v8c-.84.17-1.59.29-2.25.38a15,15,0,0,1-1.75.12,7.05,7.05,0,0,1-3.8-.89A4,4,0,0,1,177,33.4l-.2-.94a10.72,10.72,0,0,1-4.43,3.48A15.09,15.09,0,0,1,166.5,37a7.67,7.67,0,0,1-6.08-2.42Q158.31,32.17,158.3,27.62Z"/><path class="cls-1" d="M232.85,36.5h-9.5V22.06a4,4,0,0,0-.78-2.76,2.47,2.47,0,0,0-1.87-.85,3.94,3.94,0,0,0-2.4,1,5.87,5.87,0,0,0-1.9,2.63V36.5h-9.5V22.06a4,4,0,0,0-.78-2.76,2.45,2.45,0,0,0-1.87-.85,4,4,0,0,0-2.4,1A5.78,5.78,0,0,0,200,22V36.5h-9.5V10.55H199v3.93a8.77,8.77,0,0,1,3.85-3.22,13.93,13.93,0,0,1,5.8-1.11,7.5,7.5,0,0,1,4.9,1.38,6.71,6.71,0,0,1,2.2,3.09,9.34,9.34,0,0,1,3.85-3.29,12.44,12.44,0,0,1,5.5-1.18,8,8,0,0,1,4.15.93,6.22,6.22,0,0,1,2.32,2.41,9.91,9.91,0,0,1,1,3.08,19.85,19.85,0,0,1,.25,2.92Z"/><path class="cls-1" d="M254.2,37a10.5,10.5,0,0,1-5.1-1.17,8.51,8.51,0,0,1-3.4-3.43v4.1h-8.25V0H247V14.55a7.79,7.79,0,0,1,3.25-3.28,10.33,10.33,0,0,1,5-1.12,10,10,0,0,1,4.45,1A10.89,10.89,0,0,1,263.17,14a13.27,13.27,0,0,1,2.38,4.3,16.67,16.67,0,0,1,.85,5.38,14.67,14.67,0,0,1-.93,5.29,13.64,13.64,0,0,1-2.55,4.25A11.13,11.13,0,0,1,259.07,36,12,12,0,0,1,254.2,37Zm-2.75-8a5.72,5.72,0,0,0,2.1-.38,5.13,5.13,0,0,0,1.65-1.08,4.89,4.89,0,0,0,1.07-1.66,5.9,5.9,0,0,0,.38-2.16,6.27,6.27,0,0,0-.63-2.81,5.19,5.19,0,0,0-1.7-2,4.36,4.36,0,0,0-4.42-.26A6,6,0,0,0,248.17,20,6.38,6.38,0,0,0,247,21.89v4.52a8.86,8.86,0,0,0,1,1.13,5.64,5.64,0,0,0,1.08.81,4.65,4.65,0,0,0,1.17.48A5,5,0,0,0,251.45,29Z"/><path class="cls-1" d="M282.75,37a16.66,16.66,0,0,1-6.15-1.06,13.08,13.08,0,0,1-4.53-2.88,12.21,12.21,0,0,1-2.77-4.19,13,13,0,0,1-.95-5A14.41,14.41,0,0,1,270,17.05a12.55,12.55,0,0,1,4.85-5,17.54,17.54,0,0,1,15.8,0A12.61,12.61,0,0,1,295.5,17a13.73,13.73,0,0,1,1.65,6.64c0,.5,0,1-.08,1.51s-.11,1-.17,1.35H278.45a3.72,3.72,0,0,0,.77,2.16,3.91,3.91,0,0,0,1.7,1.21,6.13,6.13,0,0,0,2.13.38,6.32,6.32,0,0,0,2.92-.7,3.54,3.54,0,0,0,1.83-1.95l8.05,2.3a11.79,11.79,0,0,1-2.93,3.7,14.19,14.19,0,0,1-4.42,2.53A17,17,0,0,1,282.75,37Zm-4.5-16.25H287a4.73,4.73,0,0,0-.73-2.07,3.88,3.88,0,0,0-1.5-1.31,5,5,0,0,0-4.25,0,3.88,3.88,0,0,0-1.5,1.31A4.72,4.72,0,0,0,278.25,20.75Z"/><path class="cls-1" d="M318.1,18.3a19.36,19.36,0,0,0-5,.6,6.1,6.1,0,0,0-3.35,2V36.5h-9.5V10.55H309V15.2a11,11,0,0,1,3.5-4.08A7.78,7.78,0,0,1,316.9,9.7h.77a2,2,0,0,1,.43.05Z"/><path class="cls-1" d="M322.39,19.75v-9.2h7.7v9.2Zm0,16.75V27.3h7.7v9.2Z"/><path class="cls-2" d="M26.5,82.08a16.45,16.45,0,0,1-1.75,7.7A13.61,13.61,0,0,1,20,95.08,12.2,12.2,0,0,1,13.25,97,12.25,12.25,0,0,1,6.5,95.08a13.58,13.58,0,0,1-4.75-5.3,17.84,17.84,0,0,1,0-15.41A13.7,13.7,0,0,1,6.5,69.05a12.21,12.21,0,0,1,6.8-2,12,12,0,0,1,6.72,2,13.74,13.74,0,0,1,4.73,5.32A16.47,16.47,0,0,1,26.5,82.08Zm-9.6,0a10.17,10.17,0,0,0-.48-3.28,5.32,5.32,0,0,0-1.3-2.19,2.63,2.63,0,0,0-1.87-.8,2.79,2.79,0,0,0-1.95.8A5.14,5.14,0,0,0,10,78.79a11.48,11.48,0,0,0,0,6.57,5,5,0,0,0,1.32,2.17,2.85,2.85,0,0,0,1.95.77,2.68,2.68,0,0,0,1.87-.77,5.18,5.18,0,0,0,1.3-2.17A10.19,10.19,0,0,0,16.9,82.07Z"/><path class="cls-2" d="M57.25,85.45a10.36,10.36,0,0,1-1.8,6,12.14,12.14,0,0,1-4.85,4A15.45,15.45,0,0,1,43.85,97a15.21,15.21,0,0,1-6.58-1.45,12.34,12.34,0,0,1-5-4.13,10.63,10.63,0,0,1-1.87-6.27,7.62,7.62,0,0,1,.67-3.25,9.9,9.9,0,0,1,1.68-2.55,14.3,14.3,0,0,1,2-1.8A6.9,6.9,0,0,1,33.05,76a7.7,7.7,0,0,1-1.18-2.12,6.92,6.92,0,0,1-.42-2.33A8.82,8.82,0,0,1,32.6,67a11,11,0,0,1,3-3.32,13.59,13.59,0,0,1,4-2A14.56,14.56,0,0,1,43.85,61a14.79,14.79,0,0,1,4.25.67,13.92,13.92,0,0,1,4,2,10.8,10.8,0,0,1,3,3.28,8.66,8.66,0,0,1,1.15,4.5,6.65,6.65,0,0,1-.45,2.35,8.85,8.85,0,0,1-1.2,2.2A5.76,5.76,0,0,1,53,77.55a13.69,13.69,0,0,1,2,1.87,9.62,9.62,0,0,1,1.65,2.63A8.52,8.52,0,0,1,57.25,85.45ZM47.6,84.9a3.55,3.55,0,0,0-.28-1.48,3,3,0,0,0-.8-1.07,3.74,3.74,0,0,0-1.2-.68,4.62,4.62,0,0,0-1.47-.22,4.24,4.24,0,0,0-2,.43,3.16,3.16,0,0,0-1.33,1.2,3.45,3.45,0,0,0-.47,1.82,3.09,3.09,0,0,0,.3,1.37,3.84,3.84,0,0,0,.8,1.11,3.49,3.49,0,0,0,1.17.72,4.18,4.18,0,0,0,1.48.25,4,4,0,0,0,1.95-.47,3.48,3.48,0,0,0,1.32-1.26A3.19,3.19,0,0,0,47.6,84.9ZM41.1,71.75a2.53,2.53,0,0,0,.4,1.48,2.62,2.62,0,0,0,1,.87,3.08,3.08,0,0,0,1.3.3,3,3,0,0,0,1.32-.3,2.76,2.76,0,0,0,1-.87,2.4,2.4,0,0,0,.43-1.48,2.24,2.24,0,0,0-.35-1.2,2.47,2.47,0,0,0-1-.88,3.44,3.44,0,0,0-2.9,0,2.51,2.51,0,0,0-1,.88A2.24,2.24,0,0,0,41.1,71.75Z"/><path class="cls-2" d="M87.75,82.08A16.45,16.45,0,0,1,86,89.78a13.61,13.61,0,0,1-4.73,5.3,12.86,12.86,0,0,1-13.52,0A13.58,13.58,0,0,1,63,89.78a17.84,17.84,0,0,1,0-15.41,13.7,13.7,0,0,1,4.75-5.32,12.21,12.21,0,0,1,6.8-2,12,12,0,0,1,6.72,2A13.74,13.74,0,0,1,86,74.37,16.47,16.47,0,0,1,87.75,82.08Zm-9.6,0a10.17,10.17,0,0,0-.48-3.28,5.32,5.32,0,0,0-1.3-2.19,2.63,2.63,0,0,0-1.87-.8,2.79,2.79,0,0,0-2,.8,5.25,5.25,0,0,0-1.33,2.19,11.72,11.72,0,0,0,0,6.57,5.11,5.11,0,0,0,1.33,2.17,2.85,2.85,0,0,0,2,.77,2.68,2.68,0,0,0,1.87-.77,5.18,5.18,0,0,0,1.3-2.17A10.19,10.19,0,0,0,78.15,82.07Z"/><path class="cls-2" d="M118.45,82.08a16.45,16.45,0,0,1-1.75,7.7,13.61,13.61,0,0,1-4.73,5.3,12.86,12.86,0,0,1-13.52,0,13.58,13.58,0,0,1-4.75-5.3,17.84,17.84,0,0,1,0-15.41,13.7,13.7,0,0,1,4.75-5.32,12.21,12.21,0,0,1,6.8-2,12,12,0,0,1,6.72,2,13.74,13.74,0,0,1,4.73,5.32A16.47,16.47,0,0,1,118.45,82.08Zm-9.6,0a10.17,10.17,0,0,0-.48-3.28,5.32,5.32,0,0,0-1.3-2.19,2.63,2.63,0,0,0-1.87-.8,2.79,2.79,0,0,0-2,.8,5.25,5.25,0,0,0-1.33,2.19,11.72,11.72,0,0,0,0,6.57,5.11,5.11,0,0,0,1.33,2.17,2.85,2.85,0,0,0,2,.77,2.68,2.68,0,0,0,1.87-.77,5.18,5.18,0,0,0,1.3-2.17A10.19,10.19,0,0,0,108.85,82.07Z"/><path class="cls-2" d="M152.2,84.3A7.75,7.75,0,0,1,155.82,86a9.17,9.17,0,0,1,2.48,3.24,10,10,0,0,1,.9,4.27A9,9,0,0,1,157.47,99a11.08,11.08,0,0,1-4.92,3.59,20.54,20.54,0,0,1-7.6,1.27,21.33,21.33,0,0,1-6.8-1,16,16,0,0,1-5.35-3l4.85-6.9a10.9,10.9,0,0,0,3.07,1.65,11.57,11.57,0,0,0,3.73.55,6.57,6.57,0,0,0,3.72-.82,2.92,2.92,0,0,0,1.18-2.6,3,3,0,0,0-1.5-2.86A10.28,10.28,0,0,0,143,88H141.4V81.4h1.75a6.72,6.72,0,0,0,3.85-1,3,3,0,0,0,1.45-2.6,2.66,2.66,0,0,0-.38-1.44,2.38,2.38,0,0,0-1.1-.91,4.42,4.42,0,0,0-1.77-.31A6.52,6.52,0,0,0,142,76a7.85,7.85,0,0,0-2.7,2.63l-6-7.05a10.45,10.45,0,0,1,3.22-2.35,20.7,20.7,0,0,1,4.58-1.58,24,24,0,0,1,5.25-.57,17.16,17.16,0,0,1,6.47,1.12,10,10,0,0,1,4.33,3.12A7.45,7.45,0,0,1,158.65,76a8.79,8.79,0,0,1-3.15,6.72A7.29,7.29,0,0,1,152.2,84.3Z"/><path class="cls-2" d="M187,88v8.5H163.85V88H171v-10a5.06,5.06,0,0,1-1.4,1.18,16.91,16.91,0,0,1-2.13,1.07,16.12,16.12,0,0,1-2.37.8,9,9,0,0,1-2.15.3V72.7a5.58,5.58,0,0,0,1.92-.5,18.24,18.24,0,0,0,2.53-1.28,20.9,20.9,0,0,0,2.3-1.57A4.82,4.82,0,0,0,171,68h9.7V88Z"/><path class="cls-2" d="M216.8,82.08a16.58,16.58,0,0,1-1.75,7.7,13.61,13.61,0,0,1-4.73,5.3,12.86,12.86,0,0,1-13.52,0,13.5,13.5,0,0,1-4.75-5.3,17.84,17.84,0,0,1,0-15.41,13.63,13.63,0,0,1,4.75-5.32,12.19,12.19,0,0,1,6.8-2,12,12,0,0,1,6.72,2,13.74,13.74,0,0,1,4.73,5.32A16.59,16.59,0,0,1,216.8,82.08Zm-9.6,0a10.17,10.17,0,0,0-.48-3.28,5.32,5.32,0,0,0-1.3-2.19,2.63,2.63,0,0,0-1.87-.8,2.77,2.77,0,0,0-2,.8,5.25,5.25,0,0,0-1.33,2.19,11.72,11.72,0,0,0,0,6.57,5.11,5.11,0,0,0,1.33,2.17,2.83,2.83,0,0,0,2,.77,2.68,2.68,0,0,0,1.87-.77,5.18,5.18,0,0,0,1.3-2.17A10.19,10.19,0,0,0,207.2,82.07Z"/><path class="cls-2" d="M250.55,84.3A7.7,7.7,0,0,1,254.17,86a9.17,9.17,0,0,1,2.48,3.24,10,10,0,0,1,.9,4.27A9,9,0,0,1,255.82,99a11.08,11.08,0,0,1-4.92,3.59,20.54,20.54,0,0,1-7.6,1.27,21.33,21.33,0,0,1-6.8-1,16,16,0,0,1-5.35-3L236,93a10.9,10.9,0,0,0,3.07,1.65,11.57,11.57,0,0,0,3.73.55,6.57,6.57,0,0,0,3.72-.82,2.92,2.92,0,0,0,1.18-2.6,3,3,0,0,0-1.5-2.86,10.28,10.28,0,0,0-4.9-.87h-1.55V81.4h1.75a6.72,6.72,0,0,0,3.85-1,3,3,0,0,0,1.45-2.6,2.66,2.66,0,0,0-.38-1.44,2.38,2.38,0,0,0-1.1-.91,4.42,4.42,0,0,0-1.77-.31,6.55,6.55,0,0,0-3.25.87,7.94,7.94,0,0,0-2.7,2.63l-6-7.05a10.45,10.45,0,0,1,3.22-2.35,20.7,20.7,0,0,1,4.58-1.58,24,24,0,0,1,5.25-.57,17.12,17.12,0,0,1,6.47,1.12,10,10,0,0,1,4.33,3.12A7.45,7.45,0,0,1,257,76a8.79,8.79,0,0,1-3.15,6.72A7.29,7.29,0,0,1,250.55,84.3Z"/><path class="cls-2" d="M260.75,96.5a21.74,21.74,0,0,1,.4-4.45,11.22,11.22,0,0,1,1.3-3.44,11.68,11.68,0,0,1,2.32-2.79,18.52,18.52,0,0,1,3.53-2.38c1.8-1,3.23-1.77,4.3-2.37S274.46,80,275,79.62a3.26,3.26,0,0,0,1-.91,1.6,1.6,0,0,0,.23-.83,2.54,2.54,0,0,0-.38-1.45,2.34,2.34,0,0,0-1-.84,4,4,0,0,0-1.6-.29,6.52,6.52,0,0,0-1.58.2,5.71,5.71,0,0,0-1.52.65,11.85,11.85,0,0,0-1.53,1.12A16.48,16.48,0,0,0,267,78.9l-6-7.05a11.83,11.83,0,0,1,2.47-1.93,18.54,18.54,0,0,1,3.3-1.5,25.41,25.41,0,0,1,8.08-1.32,16.55,16.55,0,0,1,6.4,1.09,8.53,8.53,0,0,1,3.95,3.11,8.66,8.66,0,0,1,1.35,4.91,9.17,9.17,0,0,1-.4,2.83,7.94,7.94,0,0,1-1.1,2.22,11,11,0,0,1-1.63,1.79,20.23,20.23,0,0,1-2,1.53l-1.58.84c-.55.29-1.11.57-1.67.84s-1.14.56-1.7.85-1.14.58-1.7.89h12.3v8.5Z"/><path class="cls-2" d="M317.75,82.08a16.45,16.45,0,0,1-1.75,7.7,13.61,13.61,0,0,1-4.73,5.3,12.86,12.86,0,0,1-13.52,0,13.58,13.58,0,0,1-4.75-5.3,17.84,17.84,0,0,1,0-15.41,13.7,13.7,0,0,1,4.75-5.32,12.19,12.19,0,0,1,6.8-2,12,12,0,0,1,6.72,2A13.74,13.74,0,0,1,316,74.37,16.47,16.47,0,0,1,317.75,82.08Zm-9.6,0a10.17,10.17,0,0,0-.48-3.28,5.32,5.32,0,0,0-1.3-2.19,2.63,2.63,0,0,0-1.87-.8,2.77,2.77,0,0,0-1.95.8,5.25,5.25,0,0,0-1.33,2.19,11.72,11.72,0,0,0,0,6.57,5.11,5.11,0,0,0,1.33,2.17,2.83,2.83,0,0,0,1.95.77,2.68,2.68,0,0,0,1.87-.77,5.18,5.18,0,0,0,1.3-2.17A10.19,10.19,0,0,0,308.15,82.07Z"/></g></g></svg>