<svg xmlns="http://www.w3.org/2000/svg" viewBox="0 0 456.67 41.78"><defs><style>.cls-1{fill:#0d5fa8;}</style></defs><g id="Layer_2" data-name="Layer 2"><g id="Layer_1-2" data-name="Layer 1"><path class="cls-1" d="M8.47,0h4.85V41.78H4V11.35H0V3.16H5.31Z"/><path class="cls-1" d="M38.56,35.91l-5.87,5.87H22.41l-5.87-5.87v-30L22.41,0H32.69l5.87,5.87Zm-9.32-3.39V9.26a1.67,1.67,0,0,0-1.41-1.81h-.56a1.67,1.67,0,0,0-1.42,1.81V32.52a1.65,1.65,0,0,0,1.42,1.8h.56A1.66,1.66,0,0,0,29.24,32.52Z"/><path class="cls-1" d="M63.62,35.91l-5.87,5.87H47.47L41.6,35.91v-30L47.47,0H57.75l5.87,5.87ZM54.3,32.52V9.26a1.67,1.67,0,0,0-1.41-1.81h-.56a1.67,1.67,0,0,0-1.41,1.81V32.52a1.66,1.66,0,0,0,1.41,1.8h.56A1.66,1.66,0,0,0,54.3,32.52Z"/><path class="cls-1" d="M66.16,14.45v-11L69.6,0h6L79,3.44v11L75.64,17.9h-6ZM87.33,0h6.43L73.44,41.78H67ZM72.76,13.15c.68,0,1-.56,1-1.46V6.15c0-.9-.34-1.41-1-1.41h-.28c-.68,0-1,.51-1,1.41v5.54c0,.9.34,1.46,1,1.46ZM94.67,27.32v11l-3.45,3.45h-6L81.8,38.33v-11l3.38-3.44h6Zm-6.61,1.3c-.68,0-1,.57-1,1.47v5.53c0,.91.33,1.41,1,1.41h.28c.68,0,1-.5,1-1.41V30.09c0-.9-.34-1.47-1-1.47Z"/><path class="cls-1" d="M105.56,15.36l3.72-2.15-3.72-2.14V7.17L109.28,5l-3.72-2.14V0h16.2l5.87,5.87V20.44l-5.87,5.87h-6.89V41.78h-9.31V23.54l3.72-2.14-3.72-2.15Zm11.29,3.5a1.67,1.67,0,0,0,1.47-1.81V9.26a1.67,1.67,0,0,0-1.47-1.81h-2V18.86Z"/><path class="cls-1" d="M130.34,14.68l3.73-2.15-3.73-2.14V6.49l3.73-2.14L130.34,2.2V0h9.31V32.52a1.66,1.66,0,0,0,1.47,1.8h.51a1.66,1.66,0,0,0,1.47-1.8V0h9.31V35.91l-5.92,5.87H136.21l-5.87-5.87v-13l3.73-2.14-3.73-2.15Z"/><path class="cls-1" d="M155.74,16.6l3.73-2.15-3.73-2.14V8.41l3.73-2.14-3.73-2.15V0h16.2l5.88,5.87v10.9l-4.35,4.34,4.35,4.29V36.53l.79,5.25h-9.43l-.68-4.58V26.42A1.61,1.61,0,0,0,167,24.67h-2V41.78h-9.32v-17l3.73-2.14-3.73-2.15Zm11.29.62a1.67,1.67,0,0,0,1.47-1.81V9.26A1.67,1.67,0,0,0,167,7.45h-2v9.77Z"/><path class="cls-1" d="M181,29.81l3.73-2.15L181,25.52v-3.9l3.73-2.14L181,17.33V0h17.39V8h-8.07v8.63h7.39v8h-7.39v9.09h8.07v8H181V38l3.73-2.14L181,33.7Z"/><path class="cls-1" d="M209.43,15.75l3.72-2.14-3.72-2.15V7.57l3.72-2.15-3.72-2.15V0h8.86l3.78,16.94h.51V0h8.75V41.78h-8l-4.63-18h-.51v18h-8.8V23.94l3.72-2.15-3.72-2.14Z"/><path class="cls-1" d="M234.72,29.81l3.72-2.15-3.72-2.14v-3.9l3.72-2.14-3.72-2.15V0H252.1V8H244v8.63h7.4v8H244v9.09h8.07v8H234.72V38l3.72-2.14-3.72-2.15Z"/><path class="cls-1" d="M267.8,41.78h-8.47L258,32l3.73-1.8L257.52,28,257,23.77,260.68,22l-4.23-2.14-.57-4.24,3.73-1.81-4.29-2.14L253.79,0h9.32l2,19.31h.56l2-19.31h6.15l2,19.31h.56L278.3,0h8.75l-5.54,41.78h-8.46l-2.38-18.07h-.5Z"/><path class="cls-1" d="M298.39,30.49l4.23-2.09-3.05-1.53,1.53-4.57,4.23-2.09-3.05-1.52L305.84,8H297V0h19V7.51l-8.64,26.25h8.64v8h-19V38.73l3.73-2.15-3.73-2.14Z"/><path class="cls-1" d="M319,29.81l3.73-2.15L319,25.52v-3.9l3.73-2.14L319,17.33V0h17.39V8h-8.07v8.63h7.39v8h-7.39v9.09h8.07v8H319V38l3.73-2.14L319,33.7Z"/><path class="cls-1" d="M347.05,41.78h-9l2.26-18.13,4.23-2.08-3.72-1.87.51-4.18,4.29-2.14-3.78-1.86.56-4.18,4.23-2.15-3.72-1.86L343.32,0H357l5.25,41.78H353l-.62-6.72h-4.74Zm1.24-14.23h3.44l-1.46-15.69h-.57Z"/><path class="cls-1" d="M364.55,23.88l3.72-2.14-3.72-2.15v-3.9l3.72-2.14-3.72-2.15V0h9.31V33.76h7.34v8H364.55V32.07l3.72-2.15-3.72-2.14Z"/><path class="cls-1" d="M391.81,41.78h-9l2.25-18.13,4.24-2.08L385.6,19.7l.51-4.18,4.29-2.14-3.78-1.86.56-4.18,4.24-2.15-3.73-1.86.4-3.33H401.8l5.25,41.78H397.8l-.62-6.72h-4.75Zm1.24-14.23h3.45L395,11.86h-.56Z"/><path class="cls-1" d="M409.31,15.75,413,13.61l-3.73-2.15V7.57L413,5.42l-3.73-2.15V0h8.86L422,16.94h.5V0h8.75V41.78h-8l-4.62-18h-.51v18h-8.81V23.94L413,21.79l-3.73-2.14Z"/><path class="cls-1" d="M434.6,15.3l3.73-2.15L434.6,11V7.11L438.33,5,434.6,2.82V0h16.2l5.87,5.87v30l-5.87,5.87H434.6V23.48l3.73-2.14-3.73-2.15Zm11.29,19a1.66,1.66,0,0,0,1.47-1.8V9.26a1.67,1.67,0,0,0-1.47-1.81h-2V34.32Z"/></g></g></svg>